<?xml version="1.0" encoding="UTF-8" standalone="no"?>
<!DOCTYPE svg PUBLIC "-//W3C//DTD SVG 1.1//EN" "http://www.w3.org/Graphics/SVG/1.1/DTD/svg11.dtd">
<svg width="100%" height="100%" viewBox="0 0 250 250" version="1.1" xmlns="http://www.w3.org/2000/svg" xmlns:xlink="http://www.w3.org/1999/xlink" xml:space="preserve" xmlns:serif="http://www.serif.com/" style="fill-rule:evenodd;clip-rule:evenodd;stroke-linejoin:round;stroke-miterlimit:2;">
    <g transform="matrix(6.73496,0,0,6.73496,0.49924,0.39624)">
        <circle cx="18.5" cy="18.5" r="18.5" style="fill:rgb(46,46,46);"/>
        <g id="B" transform="matrix(0.872877,0,0,0.872877,2.91406,2.78662)">
            <path d="M18.5,10.658C18.498,10.635 18.497,10.613 18.497,10.59C18.497,10.024 18.964,9.557 19.53,9.557C19.603,9.557 19.675,9.565 19.746,9.58L23.392,9.58C24.309,9.56 25.221,9.709 26.083,10.02C26.775,10.272 27.4,10.679 27.91,11.211C28.352,11.68 28.694,12.235 28.915,12.841C29.12,13.414 29.225,14.018 29.226,14.626C29.279,15.575 29.021,16.517 28.49,17.305C27.922,17.949 27.187,18.422 26.367,18.673L26.367,18.729C27.631,18.94 28.783,19.584 29.624,20.551C30.428,21.507 30.843,22.733 30.784,23.981C30.789,24.731 30.659,25.475 30.402,26.179C29.862,27.645 28.692,28.796 27.216,29.311C26.306,29.629 25.347,29.783 24.383,29.765L19.739,29.765C19.668,29.78 19.596,29.787 19.523,29.787C18.957,29.787 18.49,29.321 18.49,28.754C18.49,28.732 18.491,28.709 18.493,28.687L18.493,10.658L18.5,10.658ZM19.831,18.226L23.509,18.226C24.78,18.209 26.018,17.814 27.064,17.092C27.704,16.475 28.026,15.596 27.934,14.712C27.932,13.79 27.575,12.903 26.936,12.238C26.073,11.311 24.829,10.831 23.567,10.938L19.823,10.938L19.823,18.227L19.831,18.226ZM19.831,28.405L24.16,28.405C25.552,28.404 26.909,27.966 28.04,27.154C28.939,26.321 29.453,25.149 29.455,23.923C29.53,22.831 29.098,21.764 28.285,21.032C27.167,19.968 25.673,19.385 24.129,19.413L19.83,19.413L19.83,28.406L19.831,28.405Z" style="fill:rgb(144,144,144);fill-rule:nonzero;"/>
        </g>
        <g id="Z" transform="matrix(0.872877,0,0,0.872877,2.91406,2.78662)">
            <path d="M20.768,26.3C21.022,26.253 21.284,26.312 21.494,26.463C21.648,26.586 21.737,26.772 21.737,26.969C21.737,27.166 21.648,27.353 21.494,27.476C21.284,27.627 21.022,27.686 20.768,27.639L9.384,27.639C8.942,27.666 8.502,27.557 8.124,27.326C7.847,27.147 7.682,26.837 7.685,26.507C7.698,26.27 7.76,26.038 7.869,25.826C8.056,25.452 8.269,25.092 8.507,24.749L19.148,8.796L9.157,8.796C8.92,8.844 8.674,8.784 8.485,8.633C8.331,8.511 8.241,8.324 8.241,8.127C8.241,7.93 8.331,7.743 8.485,7.62C8.674,7.469 8.92,7.41 9.157,7.458L20.071,7.458C20.332,7.438 20.59,7.519 20.793,7.685C20.946,7.821 21.034,8.017 21.034,8.223C21.003,8.508 20.868,8.772 20.653,8.963C20.439,9.154 20.653,8.941 19.558,10.429C17.073,14.215 9.171,26.303 9.171,26.303L20.768,26.303L20.768,26.3Z" style="fill:rgb(242,243,38);fill-rule:nonzero;"/>
        </g>
        <g id="B-2" transform="matrix(0.872877,0,0,0.872877,2.91406,2.78662)">
            <path d="M18.535,10.658C18.533,10.635 18.532,10.613 18.532,10.59C18.532,10.024 18.999,9.557 19.566,9.557C19.638,9.557 19.71,9.565 19.781,9.58L23.433,9.58C28.543,10.835 28.986,15.36 28.68,16.031L25.812,18.901C19.297,18.64 18.847,19.811 18.533,18.766L18.533,10.658L18.535,10.658ZM20.043,18.439C20.043,18.439 25.787,18.5 26.551,18.019C27.447,17.438 28.012,16.463 28.072,15.397C28.54,11.11 25.869,10.882 23.603,10.882L20.043,10.882L20.043,18.439Z" style="fill:rgb(144,144,144);fill-rule:nonzero;"/>
        </g>
    </g>
</svg>
